<svg width="36" height="46" viewBox="0 0 36 46" fill="none" xmlns="http://www.w3.org/2000/svg">
<path d="M10.4167 45.8333C9.27083 45.8333 8.28993 45.4253 7.47396 44.6094C6.65799 43.7934 6.25 42.8125 6.25 41.6667V33.3333H10.4167V35.4167H31.25V10.4167H10.4167V12.5H6.25V4.16667C6.25 3.02083 6.65799 2.03993 7.47396 1.22396C8.28993 0.407986 9.27083 0 10.4167 0H31.25C32.3958 0 33.3767 0.407986 34.1927 1.22396C35.0087 2.03993 35.4167 3.02083 35.4167 4.16667V41.6667C35.4167 42.8125 35.0087 43.7934 34.1927 44.6094C33.3767 45.4253 32.3958 45.8333 31.25 45.8333H10.4167ZM10.4167 39.5833V41.6667H31.25V39.5833H10.4167ZM2.91667 33.3333L0 30.4167L11.6667 18.75H4.16667V14.5833H18.75V29.1667H14.5833V21.6667L2.91667 33.3333ZM10.4167 6.25H31.25V4.16667H10.4167V6.25Z" fill="#0D2C7C"/>
</svg>
