<svg width="42" height="42" viewBox="0 0 42 42" fill="none" xmlns="http://www.w3.org/2000/svg">
<path d="M19.1253 35.5834H22.7712V32.9793C24.5073 32.6668 26.0003 31.9897 27.2503 30.948C28.5003 29.9063 29.1253 28.3612 29.1253 26.3126C29.1253 24.8542 28.7087 23.5174 27.8753 22.3022C27.042 21.0869 25.3753 20.0279 22.8753 19.1251C20.792 18.4306 19.351 17.823 18.5524 17.3022C17.7538 16.7813 17.3545 16.0695 17.3545 15.1667C17.3545 14.264 17.6757 13.5522 18.318 13.0313C18.9604 12.5105 19.8892 12.2501 21.1045 12.2501C22.2156 12.2501 23.0837 12.5192 23.7087 13.0574C24.3337 13.5956 24.785 14.264 25.0628 15.0626L28.3962 13.7084C28.0142 12.4931 27.3111 11.4341 26.2868 10.5313C25.2625 9.62855 24.1253 9.12508 22.8753 9.02092V6.41675H19.2295V9.02092C17.4934 9.40286 16.1392 10.1667 15.167 11.3126C14.1948 12.4584 13.7087 13.7431 13.7087 15.1667C13.7087 16.7987 14.1861 18.1181 15.141 19.1251C16.0958 20.132 17.5975 21.0001 19.6462 21.7292C21.8337 22.5279 23.3528 23.2397 24.2035 23.8647C25.0541 24.4897 25.4795 25.3056 25.4795 26.3126C25.4795 27.4584 25.0715 28.3004 24.2555 28.8386C23.4396 29.3768 22.4587 29.6459 21.3128 29.6459C20.167 29.6459 19.1514 29.29 18.266 28.5782C17.3805 27.8664 16.7295 26.7987 16.3128 25.3751L12.8753 26.7292C13.3614 28.3959 14.1166 29.7414 15.141 30.7657C16.1653 31.79 17.4934 32.4931 19.1253 32.8751V35.5834ZM21.0003 41.8334C18.1184 41.8334 15.41 41.2865 12.8753 40.1928C10.3406 39.099 8.13574 37.6147 6.26074 35.7397C4.38574 33.8647 2.90137 31.6598 1.80762 29.1251C0.713867 26.5904 0.166992 23.882 0.166992 21.0001C0.166992 18.1181 0.713867 15.4098 1.80762 12.8751C2.90137 10.3404 4.38574 8.1355 6.26074 6.2605C8.13574 4.3855 10.3406 2.90112 12.8753 1.80737C15.41 0.713623 18.1184 0.166748 21.0003 0.166748C23.8823 0.166748 26.5906 0.713623 29.1253 1.80737C31.6601 2.90112 33.8649 4.3855 35.7399 6.2605C37.6149 8.1355 39.0993 10.3404 40.193 12.8751C41.2868 15.4098 41.8337 18.1181 41.8337 21.0001C41.8337 23.882 41.2868 26.5904 40.193 29.1251C39.0993 31.6598 37.6149 33.8647 35.7399 35.7397C33.8649 37.6147 31.6601 39.099 29.1253 40.1928C26.5906 41.2865 23.8823 41.8334 21.0003 41.8334ZM21.0003 37.6668C25.6531 37.6668 29.5941 36.0522 32.8232 32.823C36.0524 29.5938 37.667 25.6529 37.667 21.0001C37.667 16.3473 36.0524 12.4063 32.8232 9.17717C29.5941 5.948 25.6531 4.33342 21.0003 4.33342C16.3475 4.33342 12.4066 5.948 9.17741 9.17717C5.94824 12.4063 4.33366 16.3473 4.33366 21.0001C4.33366 25.6529 5.94824 29.5938 9.17741 32.823C12.4066 36.0522 16.3475 37.6668 21.0003 37.6668Z" fill="#0D2C7C"/>
</svg>
