<svg width="42" height="34" viewBox="0 0 42 34" fill="none" xmlns="http://www.w3.org/2000/svg">
<path d="M8.50033 25.3333H25.167V18.6666L33.5003 25.3333V8.66658L25.167 15.3333V8.66658H8.50033V25.3333ZM4.33366 33.6666C3.18783 33.6666 2.20692 33.2586 1.39095 32.4426C0.574978 31.6267 0.166992 30.6458 0.166992 29.4999V4.49992C0.166992 3.35409 0.574978 2.37318 1.39095 1.55721C2.20692 0.741238 3.18783 0.333252 4.33366 0.333252H37.667C38.8128 0.333252 39.7937 0.741238 40.6097 1.55721C41.4257 2.37318 41.8337 3.35409 41.8337 4.49992V29.4999C41.8337 30.6458 41.4257 31.6267 40.6097 32.4426C39.7937 33.2586 38.8128 33.6666 37.667 33.6666H4.33366ZM4.33366 29.4999H37.667V4.49992H4.33366V29.4999Z" fill="#0D2C7C"/>
</svg>
