<svg width="42" height="42" viewBox="0 0 42 42" fill="none" xmlns="http://www.w3.org/2000/svg">
<path d="M21.0003 41.8334C19.8545 41.8334 18.8736 41.4254 18.0576 40.6095C17.2416 39.7935 16.8337 38.8126 16.8337 37.6668V21.0001C16.8337 19.8542 17.2416 18.8733 18.0576 18.0574C18.8736 17.2414 19.8545 16.8334 21.0003 16.8334H37.667C38.8128 16.8334 39.7937 17.2414 40.6097 18.0574C41.4257 18.8733 41.8337 19.8542 41.8337 21.0001V37.6668C41.8337 38.8126 41.4257 39.7935 40.6097 40.6095C39.7937 41.4254 38.8128 41.8334 37.667 41.8334H21.0003ZM21.0003 37.6668H37.667V21.0001H21.0003V37.6668ZM8.50033 33.5001V12.6667C8.50033 11.5209 8.90831 10.54 9.72429 9.72404C10.5403 8.90807 11.5212 8.50008 12.667 8.50008H33.5003V12.6667H12.667V33.5001H8.50033ZM0.166992 25.1667V4.33342C0.166992 3.18758 0.574978 2.20668 1.39095 1.39071C2.20692 0.574734 3.18783 0.166748 4.33366 0.166748H25.167V4.33342H4.33366V25.1667H0.166992Z" fill="#0D2C7C"/>
</svg>
