<svg width="42" height="42" viewBox="0 0 42 42" fill="none" xmlns="http://www.w3.org/2000/svg">
<path d="M21.0003 41.8334C18.1531 41.8334 15.4621 41.2865 12.9274 40.1928C10.3927 39.099 8.17915 37.606 6.28678 35.7136C4.39442 33.8213 2.90137 31.6077 1.80762 29.073C0.713867 26.5383 0.166992 23.8473 0.166992 21.0001C0.166992 18.1181 0.731228 15.4098 1.8597 12.8751C2.98817 10.3404 4.51595 8.1355 6.44303 6.2605C8.37012 4.3855 10.6184 2.90112 13.1878 1.80737C15.7573 0.713623 18.5003 0.166748 21.417 0.166748C24.1948 0.166748 26.8163 0.644179 29.2816 1.59904C31.7469 2.5539 33.9083 3.87335 35.766 5.55737C37.6236 7.2414 39.0993 9.23793 40.193 11.547C41.2868 13.856 41.8337 16.3473 41.8337 19.0209C41.8337 23.014 40.6184 26.0782 38.1878 28.2136C35.7573 30.349 32.8059 31.4167 29.3337 31.4167H25.4795C25.167 31.4167 24.95 31.5036 24.8285 31.6772C24.7069 31.8508 24.6462 32.0418 24.6462 32.2501C24.6462 32.6668 24.9066 33.2657 25.4274 34.047C25.9482 34.8282 26.2087 35.7223 26.2087 36.7293C26.2087 38.4654 25.7312 39.7501 24.7764 40.5834C23.8215 41.4168 22.5628 41.8334 21.0003 41.8334ZM9.54199 23.0834C10.4448 23.0834 11.1913 22.7883 11.7816 22.198C12.3719 21.6077 12.667 20.8612 12.667 19.9584C12.667 19.0556 12.3719 18.3091 11.7816 17.7188C11.1913 17.1286 10.4448 16.8334 9.54199 16.8334C8.63921 16.8334 7.89269 17.1286 7.30241 17.7188C6.71213 18.3091 6.41699 19.0556 6.41699 19.9584C6.41699 20.8612 6.71213 21.6077 7.30241 22.198C7.89269 22.7883 8.63921 23.0834 9.54199 23.0834ZM15.792 14.7501C16.6948 14.7501 17.4413 14.4549 18.0316 13.8647C18.6219 13.2744 18.917 12.5279 18.917 11.6251C18.917 10.7223 18.6219 9.97578 18.0316 9.3855C17.4413 8.79522 16.6948 8.50008 15.792 8.50008C14.8892 8.50008 14.1427 8.79522 13.5524 9.3855C12.9621 9.97578 12.667 10.7223 12.667 11.6251C12.667 12.5279 12.9621 13.2744 13.5524 13.8647C14.1427 14.4549 14.8892 14.7501 15.792 14.7501ZM26.2087 14.7501C27.1114 14.7501 27.858 14.4549 28.4482 13.8647C29.0385 13.2744 29.3337 12.5279 29.3337 11.6251C29.3337 10.7223 29.0385 9.97578 28.4482 9.3855C27.858 8.79522 27.1114 8.50008 26.2087 8.50008C25.3059 8.50008 24.5594 8.79522 23.9691 9.3855C23.3788 9.97578 23.0837 10.7223 23.0837 11.6251C23.0837 12.5279 23.3788 13.2744 23.9691 13.8647C24.5594 14.4549 25.3059 14.7501 26.2087 14.7501ZM32.4587 23.0834C33.3614 23.0834 34.108 22.7883 34.6982 22.198C35.2885 21.6077 35.5837 20.8612 35.5837 19.9584C35.5837 19.0556 35.2885 18.3091 34.6982 17.7188C34.108 17.1286 33.3614 16.8334 32.4587 16.8334C31.5559 16.8334 30.8094 17.1286 30.2191 17.7188C29.6288 18.3091 29.3337 19.0556 29.3337 19.9584C29.3337 20.8612 29.6288 21.6077 30.2191 22.198C30.8094 22.7883 31.5559 23.0834 32.4587 23.0834ZM21.0003 37.6668C21.3128 37.6668 21.5646 37.5799 21.7555 37.4063C21.9465 37.2327 22.042 37.007 22.042 36.7293C22.042 36.2431 21.7816 35.6702 21.2607 35.0105C20.7399 34.3508 20.4795 33.3612 20.4795 32.0417C20.4795 30.5834 20.983 29.4202 21.9899 28.5522C22.9969 27.6841 24.2295 27.2501 25.6878 27.2501H29.3337C31.6253 27.2501 33.5871 26.5817 35.2191 25.2449C36.851 23.9081 37.667 21.8334 37.667 19.0209C37.667 14.8195 36.0611 11.3213 32.8493 8.52612C29.6375 5.73099 25.8267 4.33342 21.417 4.33342C16.6948 4.33342 12.667 5.948 9.33366 9.17717C6.00033 12.4063 4.33366 16.3473 4.33366 21.0001C4.33366 25.6181 5.95692 29.5504 9.20345 32.797C12.45 36.0435 16.3823 37.6668 21.0003 37.6668Z" fill="#0D2C7C"/>
</svg>
